<svg data-v-7cc9f5eb="" width="639" height="384" viewBox="0 0 639 384" fill="none" xmlns="http://www.w3.org/2000/svg"><mask data-v-7cc9f5eb="" id="maskarrowtext_quiz"><path data-v-7cc9f5eb="" class="mask-path" stroke-dashoffset="1000" stroke-dasharray="700, 700" data-duration="1.2" d="M638.076 321.851C638.377 321.9 638.58 322.184 638.531 322.485L637.721 327.385C637.672 327.685 637.388 327.889 637.087 327.839C636.786 327.79 636.583 327.506 636.632 327.205L637.352 322.849L632.996 322.13C632.696 322.08 632.492 321.796 632.542 321.496C632.592 321.195 632.876 320.992 633.176 321.041L638.076 321.851ZM-87.3542 0.407563C-107.563 75.761 -86.4598 143.569 -39.8796 200.418C6.71312 257.283 78.7928 303.173 160.472 334.605C242.146 366.035 333.378 382.993 418.236 382.025C503.101 381.058 581.536 362.162 637.665 321.946L638.308 322.844C581.929 363.238 503.244 382.16 418.248 383.129C333.245 384.098 241.874 367.113 160.076 335.635C78.2819 304.159 6.01781 258.176 -40.7333 201.118C-87.497 144.044 -108.737 75.8778 -88.4201 0.121688L-87.3542 0.407563Z" style="stroke-dashoffset: 1000; stroke-dasharray: 700px, 1232.87px;"></path></mask><path data-v-7cc9f5eb="" mask="url(#maskarrowtext_quiz)" d="M638.076 321.851C638.377 321.9 638.58 322.184 638.531 322.485L637.721 327.385C637.672 327.685 637.388 327.889 637.087 327.839C636.786 327.79 636.583 327.506 636.632 327.205L637.352 322.849L632.996 322.13C632.696 322.08 632.492 321.796 632.542 321.496C632.592 321.195 632.876 320.992 633.176 321.041L638.076 321.851ZM-87.3542 0.407563C-107.563 75.761 -86.4598 143.569 -39.8796 200.418C6.71312 257.283 78.7928 303.173 160.472 334.605C242.146 366.035 333.378 382.993 418.236 382.025C503.101 381.058 581.536 362.162 637.665 321.946L638.308 322.844C581.929 363.238 503.244 382.16 418.248 383.129C333.245 384.098 241.874 367.113 160.076 335.635C78.2819 304.159 6.01781 258.176 -40.7333 201.118C-87.497 144.044 -108.737 75.8778 -88.4201 0.121688L-87.3542 0.407563Z" fill="#353535"></path></svg>